G75*
%MOIN*%
%OFA0B0*%
%FSLAX24Y24*%
%IPPOS*%
%LPD*%
%AMOC8*
5,1,8,0,0,1.08239X$1,22.5*
%
%ADD10C,0.0000*%
%ADD11C,0.0520*%
%ADD12C,0.0640*%
%ADD13C,0.0560*%
%ADD14OC8,0.0660*%
%ADD15R,0.0594X0.0594*%
%ADD16C,0.0660*%
%ADD17C,0.0594*%
%ADD18OC8,0.0520*%
%ADD19C,0.0050*%
%ADD20C,0.0240*%
D10*
X006460Y006058D02*
X010460Y006058D01*
X010504Y006060D01*
X010547Y006066D01*
X010589Y006075D01*
X010631Y006088D01*
X010671Y006105D01*
X010710Y006125D01*
X010747Y006148D01*
X010781Y006175D01*
X010814Y006204D01*
X010843Y006237D01*
X010870Y006271D01*
X010893Y006308D01*
X010913Y006347D01*
X010930Y006387D01*
X010943Y006429D01*
X010952Y006471D01*
X010958Y006514D01*
X010960Y006558D01*
X010960Y007558D01*
X010962Y007602D01*
X010968Y007645D01*
X010977Y007687D01*
X010990Y007729D01*
X011007Y007769D01*
X011027Y007808D01*
X011050Y007845D01*
X011077Y007879D01*
X011106Y007912D01*
X011139Y007941D01*
X011173Y007968D01*
X011210Y007991D01*
X011249Y008011D01*
X011289Y008028D01*
X011331Y008041D01*
X011373Y008050D01*
X011416Y008056D01*
X011460Y008058D01*
X014960Y008058D01*
X015004Y008056D01*
X015047Y008050D01*
X015089Y008041D01*
X015131Y008028D01*
X015171Y008011D01*
X015210Y007991D01*
X015247Y007968D01*
X015281Y007941D01*
X015314Y007912D01*
X015343Y007879D01*
X015370Y007845D01*
X015393Y007808D01*
X015413Y007769D01*
X015430Y007729D01*
X015443Y007687D01*
X015452Y007645D01*
X015458Y007602D01*
X015460Y007558D01*
X015460Y007058D01*
X015462Y007014D01*
X015468Y006971D01*
X015477Y006929D01*
X015490Y006887D01*
X015507Y006847D01*
X015527Y006808D01*
X015550Y006771D01*
X015577Y006737D01*
X015606Y006704D01*
X015639Y006675D01*
X015673Y006648D01*
X015710Y006625D01*
X015749Y006605D01*
X015789Y006588D01*
X015831Y006575D01*
X015873Y006566D01*
X015916Y006560D01*
X015960Y006558D01*
X019960Y006558D01*
X020004Y006556D01*
X020047Y006550D01*
X020089Y006541D01*
X020131Y006528D01*
X020171Y006511D01*
X020210Y006491D01*
X020247Y006468D01*
X020281Y006441D01*
X020314Y006412D01*
X020343Y006379D01*
X020370Y006345D01*
X020393Y006308D01*
X020413Y006269D01*
X020430Y006229D01*
X020443Y006187D01*
X020452Y006145D01*
X020458Y006102D01*
X020460Y006058D01*
X020462Y006014D01*
X020468Y005971D01*
X020477Y005929D01*
X020490Y005887D01*
X020507Y005847D01*
X020527Y005808D01*
X020550Y005771D01*
X020577Y005737D01*
X020606Y005704D01*
X020639Y005675D01*
X020673Y005648D01*
X020710Y005625D01*
X020749Y005605D01*
X020789Y005588D01*
X020831Y005575D01*
X020873Y005566D01*
X020916Y005560D01*
X020960Y005558D01*
X022460Y005558D01*
X022504Y005560D01*
X022547Y005566D01*
X022589Y005575D01*
X022631Y005588D01*
X022671Y005605D01*
X022710Y005625D01*
X022747Y005648D01*
X022781Y005675D01*
X022814Y005704D01*
X022843Y005737D01*
X022870Y005771D01*
X022893Y005808D01*
X022913Y005847D01*
X022930Y005887D01*
X022943Y005929D01*
X022952Y005971D01*
X022958Y006014D01*
X022960Y006058D01*
X022960Y015058D01*
X022958Y015102D01*
X022952Y015145D01*
X022943Y015187D01*
X022930Y015229D01*
X022913Y015269D01*
X022893Y015308D01*
X022870Y015345D01*
X022843Y015379D01*
X022814Y015412D01*
X022781Y015441D01*
X022747Y015468D01*
X022710Y015491D01*
X022671Y015511D01*
X022631Y015528D01*
X022589Y015541D01*
X022547Y015550D01*
X022504Y015556D01*
X022460Y015558D01*
X019960Y015558D01*
X019916Y015560D01*
X019873Y015566D01*
X019831Y015575D01*
X019789Y015588D01*
X019749Y015605D01*
X019710Y015625D01*
X019673Y015648D01*
X019639Y015675D01*
X019606Y015704D01*
X019577Y015737D01*
X019550Y015771D01*
X019527Y015808D01*
X019507Y015847D01*
X019490Y015887D01*
X019477Y015929D01*
X019468Y015971D01*
X019462Y016014D01*
X019460Y016058D01*
X019460Y018558D01*
X019462Y018602D01*
X019468Y018645D01*
X019477Y018687D01*
X019490Y018729D01*
X019507Y018769D01*
X019527Y018808D01*
X019550Y018845D01*
X019577Y018879D01*
X019606Y018912D01*
X019639Y018941D01*
X019673Y018968D01*
X019710Y018991D01*
X019749Y019011D01*
X019789Y019028D01*
X019831Y019041D01*
X019873Y019050D01*
X019916Y019056D01*
X019960Y019058D01*
X020460Y019058D01*
X020504Y019060D01*
X020547Y019066D01*
X020589Y019075D01*
X020631Y019088D01*
X020671Y019105D01*
X020710Y019125D01*
X020747Y019148D01*
X020781Y019175D01*
X020814Y019204D01*
X020843Y019237D01*
X020870Y019271D01*
X020893Y019308D01*
X020913Y019347D01*
X020930Y019387D01*
X020943Y019429D01*
X020952Y019471D01*
X020958Y019514D01*
X020960Y019558D01*
X020960Y022558D01*
X005960Y022558D01*
X005960Y015558D01*
X005916Y015556D01*
X005873Y015550D01*
X005831Y015541D01*
X005789Y015528D01*
X005749Y015511D01*
X005710Y015491D01*
X005673Y015468D01*
X005639Y015441D01*
X005606Y015412D01*
X005577Y015379D01*
X005550Y015345D01*
X005527Y015308D01*
X005507Y015269D01*
X005490Y015229D01*
X005477Y015187D01*
X005468Y015145D01*
X005462Y015102D01*
X005460Y015058D01*
X005460Y013058D01*
X005462Y013014D01*
X005468Y012971D01*
X005477Y012929D01*
X005490Y012887D01*
X005507Y012847D01*
X005527Y012808D01*
X005550Y012771D01*
X005577Y012737D01*
X005606Y012704D01*
X005639Y012675D01*
X005673Y012648D01*
X005710Y012625D01*
X005749Y012605D01*
X005789Y012588D01*
X005831Y012575D01*
X005873Y012566D01*
X005916Y012560D01*
X005960Y012558D01*
X005960Y006558D01*
X005962Y006514D01*
X005968Y006471D01*
X005977Y006429D01*
X005990Y006387D01*
X006007Y006347D01*
X006027Y006308D01*
X006050Y006271D01*
X006077Y006237D01*
X006106Y006204D01*
X006139Y006175D01*
X006173Y006148D01*
X006210Y006125D01*
X006249Y006105D01*
X006289Y006088D01*
X006331Y006075D01*
X006373Y006066D01*
X006416Y006060D01*
X006460Y006058D01*
D11*
X006960Y008798D02*
X006960Y009318D01*
X007960Y009318D02*
X007960Y008798D01*
X008960Y008798D02*
X008960Y009318D01*
X009960Y009318D02*
X009960Y008798D01*
X010960Y008798D02*
X010960Y009318D01*
X011960Y009318D02*
X011960Y008798D01*
X012960Y008798D02*
X012960Y009318D01*
X013960Y009318D02*
X013960Y008798D01*
X014960Y008798D02*
X014960Y009318D01*
X015960Y009318D02*
X015960Y008798D01*
X016960Y008798D02*
X016960Y009318D01*
X017960Y009318D02*
X017960Y008798D01*
X018960Y008798D02*
X018960Y009318D01*
X019960Y009318D02*
X019960Y008798D01*
X019960Y011798D02*
X019960Y012318D01*
X018960Y012318D02*
X018960Y011798D01*
X017960Y011798D02*
X017960Y012318D01*
X016960Y012318D02*
X016960Y011798D01*
X015960Y011798D02*
X015960Y012318D01*
X014960Y012318D02*
X014960Y011798D01*
X013960Y011798D02*
X013960Y012318D01*
X012960Y012318D02*
X012960Y011798D01*
X011960Y011798D02*
X011960Y012318D01*
X010960Y012318D02*
X010960Y011798D01*
X009960Y011798D02*
X009960Y012318D01*
X008960Y012318D02*
X008960Y011798D01*
X007960Y011798D02*
X007960Y012318D01*
X006960Y012318D02*
X006960Y011798D01*
X006960Y015798D02*
X006960Y016318D01*
X007960Y016318D02*
X007960Y015798D01*
X008960Y015798D02*
X008960Y016318D01*
X009960Y016318D02*
X009960Y015798D01*
X010960Y015798D02*
X010960Y016318D01*
X011960Y016318D02*
X011960Y015798D01*
X012960Y015798D02*
X012960Y016318D01*
X013960Y016318D02*
X013960Y015798D01*
X014960Y015798D02*
X014960Y016318D01*
X015960Y016318D02*
X015960Y015798D01*
X015960Y018798D02*
X015960Y019318D01*
X014960Y019318D02*
X014960Y018798D01*
X013960Y018798D02*
X013960Y019318D01*
X012960Y019318D02*
X012960Y018798D01*
X011960Y018798D02*
X011960Y019318D01*
X010960Y019318D02*
X010960Y018798D01*
X009960Y018798D02*
X009960Y019318D01*
X008960Y019318D02*
X008960Y018798D01*
X007960Y018798D02*
X007960Y019318D01*
X006960Y019318D02*
X006960Y018798D01*
D12*
X017460Y018558D03*
X018460Y018558D03*
X018460Y017558D03*
X017460Y017558D03*
X017460Y016558D03*
X018460Y016558D03*
D13*
X021180Y010058D02*
X021740Y010058D01*
X021740Y009058D02*
X021180Y009058D01*
X021180Y008058D02*
X021740Y008058D01*
X021740Y007058D02*
X021180Y007058D01*
D14*
X009960Y007058D03*
X008960Y007058D03*
X007960Y007058D03*
X006960Y007058D03*
X006460Y014058D03*
X007460Y014058D03*
X008460Y014058D03*
X009460Y014058D03*
X010460Y014058D03*
X011460Y014058D03*
X012460Y014058D03*
X013460Y014058D03*
X014460Y014058D03*
X015460Y014058D03*
X016460Y014058D03*
X017460Y014058D03*
X018460Y014058D03*
X019460Y014058D03*
X020460Y014058D03*
X021460Y014058D03*
D15*
X006960Y020558D03*
D16*
X006960Y021558D03*
X008960Y021558D03*
D17*
X009960Y021558D03*
X010960Y021558D03*
X011960Y021558D03*
X012960Y021558D03*
X013960Y021558D03*
X014960Y021558D03*
X015960Y021558D03*
X016960Y021558D03*
X017960Y021558D03*
X018960Y021558D03*
X018960Y020558D03*
X017960Y020558D03*
X016960Y020558D03*
X015960Y020558D03*
X014960Y020558D03*
X013960Y020558D03*
X012960Y020558D03*
X011960Y020558D03*
X010960Y020558D03*
X009960Y020558D03*
X008960Y020558D03*
X007960Y020558D03*
X007960Y021558D03*
D18*
X015960Y007558D03*
X018960Y007558D03*
D19*
X021210Y009058D02*
X021460Y009058D01*
X021210Y009058D02*
X018210Y012058D01*
X018010Y012058D01*
X017960Y012058D01*
X018010Y012058D02*
X018010Y016708D01*
X018460Y017158D01*
X018460Y017558D01*
X018460Y017958D02*
X018660Y017958D01*
X019310Y017308D01*
X019310Y015208D01*
X020460Y014058D01*
X020610Y013608D02*
X019910Y013608D01*
X019460Y014058D01*
X018460Y015058D01*
X018460Y016558D01*
X017860Y017158D02*
X017860Y015858D01*
X017010Y015008D01*
X017010Y014008D01*
X015960Y012958D01*
X015960Y012058D01*
X015360Y011458D01*
X014610Y011458D01*
X012610Y009458D01*
X012610Y008958D01*
X012110Y008458D01*
X010760Y008458D01*
X009360Y007058D01*
X008960Y007058D01*
X008810Y006608D02*
X009510Y006608D01*
X009960Y007058D01*
X008810Y006608D02*
X008360Y007058D01*
X007960Y007058D01*
X007210Y009058D02*
X009610Y011458D01*
X013110Y011458D01*
X013610Y011958D01*
X013610Y012458D01*
X014760Y013608D01*
X015610Y013608D01*
X016010Y014008D01*
X016010Y014208D01*
X016760Y014958D01*
X016810Y014958D01*
X017460Y015608D01*
X017460Y016558D01*
X017860Y017158D02*
X017460Y017558D01*
X016710Y017808D02*
X017460Y018558D01*
X017660Y018958D02*
X017010Y018958D01*
X015560Y020408D01*
X015560Y020508D01*
X015110Y020958D01*
X011810Y020958D01*
X011560Y020708D01*
X011560Y020608D01*
X011010Y020058D01*
X009210Y020058D01*
X008210Y019058D01*
X007960Y019058D01*
X007610Y018958D02*
X007610Y019458D01*
X008310Y020158D01*
X010110Y020158D01*
X010560Y020608D01*
X010560Y020708D01*
X011010Y021158D01*
X011560Y021158D01*
X011960Y021558D01*
X012360Y021608D02*
X012360Y021708D01*
X012060Y022008D01*
X008810Y022008D01*
X008360Y021558D01*
X008360Y021408D01*
X007910Y020958D01*
X007360Y020958D01*
X006960Y020558D01*
X006960Y019058D01*
X007610Y018958D02*
X006960Y018308D01*
X006960Y016058D01*
X007960Y016058D02*
X006460Y014558D01*
X006460Y014058D01*
X007460Y014058D02*
X007860Y014058D01*
X008310Y013608D01*
X009010Y013608D01*
X009460Y014058D01*
X009910Y013608D01*
X010610Y013608D01*
X011060Y014058D01*
X011460Y014058D01*
X011910Y013608D01*
X012610Y013608D01*
X013060Y014058D01*
X013460Y014058D01*
X013910Y014508D01*
X014610Y014508D01*
X015060Y014058D01*
X015460Y014058D01*
X015960Y014558D01*
X015960Y016058D01*
X014960Y016058D02*
X014960Y016158D01*
X012860Y014058D01*
X012460Y014058D01*
X010460Y014058D02*
X010460Y014558D01*
X011960Y016058D01*
X012210Y016058D01*
X012810Y016658D01*
X013360Y016658D01*
X013960Y016058D01*
X014960Y016158D02*
X014960Y018058D01*
X013960Y019058D01*
X013810Y019658D02*
X013210Y019058D01*
X012960Y019058D01*
X013810Y019658D02*
X014360Y019658D01*
X014960Y019058D01*
X015710Y019058D02*
X014610Y020158D01*
X013360Y020158D01*
X012960Y020558D01*
X012810Y021158D02*
X012360Y021608D01*
X012810Y021158D02*
X015910Y021158D01*
X016360Y020708D01*
X016360Y020608D01*
X016810Y020158D01*
X016860Y020158D01*
X018460Y018558D01*
X018060Y018558D02*
X018060Y018358D01*
X018460Y017958D01*
X018060Y018558D02*
X017660Y018958D01*
X015960Y019058D02*
X015710Y019058D01*
X016710Y017808D02*
X016710Y015158D01*
X020610Y013608D02*
X021060Y014058D01*
X021460Y014058D01*
X021460Y010058D01*
X015960Y007558D02*
X015310Y008208D01*
X014060Y008208D01*
X013210Y009058D01*
X012960Y009058D01*
X007210Y009058D02*
X006960Y009058D01*
X008460Y014058D02*
X008860Y014058D01*
X010860Y016058D01*
X010960Y016058D01*
X009960Y016058D02*
X009360Y015458D01*
X008810Y015458D01*
X008210Y016058D01*
X007960Y016058D01*
X008960Y016058D02*
X008960Y016308D01*
X011610Y018958D01*
X011610Y020208D01*
X011960Y020558D01*
X010960Y019058D02*
X010360Y019658D01*
X009810Y019658D01*
X009210Y019058D01*
X008960Y019058D01*
D20*
X016710Y015158D03*
M02*
