%
M48
M72
T01C0.0120
T02C0.0320
T03C0.0354
T04C0.0360
T05C0.0394
%
T01
X16710Y15158
T02
X9960Y7058
X8960Y7058
X7960Y7058
X6960Y7058
X6960Y9058
X7960Y9058
X8960Y9058
X9960Y9058
X10960Y9058
X11960Y9058
X12960Y9058
X13960Y9058
X14960Y9058
X15960Y9058
X16960Y9058
X17960Y9058
X18960Y9058
X19960Y9058
X18960Y7558
X15960Y7558
X15960Y12058
X14960Y12058
X13960Y12058
X12960Y12058
X11960Y12058
X10960Y12058
X9960Y12058
X8960Y12058
X7960Y12058
X6960Y12058
X6460Y14058
X7460Y14058
X8460Y14058
X9460Y14058
X10460Y14058
X11460Y14058
X12460Y14058
X13460Y14058
X14460Y14058
X15460Y14058
X16460Y14058
X17460Y14058
X18460Y14058
X19460Y14058
X20460Y14058
X21460Y14058
X19960Y12058
X18960Y12058
X17960Y12058
X16960Y12058
X15960Y16058
X14960Y16058
X13960Y16058
X12960Y16058
X11960Y16058
X10960Y16058
X9960Y16058
X8960Y16058
X7960Y16058
X6960Y16058
X6960Y19058
X7960Y19058
X8960Y19058
X9960Y19058
X10960Y19058
X11960Y19058
X12960Y19058
X13960Y19058
X14960Y19058
X15960Y19058
T03
X17460Y16558
X18460Y16558
X18460Y17558
X17460Y17558
X17460Y18558
X18460Y18558
T04
X21460Y7058
X21460Y8058
X21460Y9058
X21460Y10058
T05
X9960Y20558
X8960Y20558
X7960Y20558
X6960Y20558
X6960Y21558
X7960Y21558
X8960Y21558
X9960Y21558
X10960Y21558
X11960Y21558
X12960Y21558
X13960Y21558
X14960Y21558
X15960Y21558
X16960Y21558
X17960Y21558
X18960Y21558
X18960Y20558
X17960Y20558
X16960Y20558
X15960Y20558
X14960Y20558
X13960Y20558
X12960Y20558
X11960Y20558
X10960Y20558
M30
